<svg xmlns="http://www.w3.org/2000/svg" width="9" height="13" viewBox="0 0 9 13">
  <path d="M0,13V11.7H9V13ZM4.073,9.3c-.113-.1-.311-.268-.565-.489-.424-.368-.848-.741-1.243-1.093l-.119-.106c-.615-.552-1.094-1-1.4-1.3l.981-.894c.276.281.738.711,1.334,1.245l.116.1c.208.185.423.376.643.569V0h1.35V7.378c.235-.205.465-.41.687-.607l.121-.107c.593-.531,1.054-.958,1.329-1.238l.981.893c-.3.306-.778.75-1.391,1.3l-.122.11c-.4.352-.82.724-1.243,1.09-.255.22-.453.391-.566.488l-.448.382Z" fill="#e2a300"/>
</svg>
