<svg xmlns="http://www.w3.org/2000/svg" width="119" height="133" viewBox="0 0 119 133">
  <g transform="translate(0 -0.111)">
    <path d="M.909.872,0,1.6,3.672,6.171l1.076-.866A2.889,2.889,0,0,0,5.3,1.077C4.351-.1,2.63-.514.909.872" transform="translate(83.529 92.031)" fill="#fff"/>
    <path d="M0,0,2.636,5.148,5.488,1.829,0,0" transform="translate(19.694 25.671)" fill="#fff"/>
    <path d="M9.763,10.189a5.9,5.9,0,0,0,.683-8.316A5.9,5.9,0,0,0,2.1,1.581a5.9,5.9,0,0,0-.7,8.332,5.9,5.9,0,0,0,8.355.275" transform="translate(89.003 21.875)" fill="#fff"/>
    <path d="M3.83.3A5.887,5.887,0,0,0,.344,7.874a5.894,5.894,0,0,0,7.409,3.853,5.893,5.893,0,0,0,3.479-7.589A5.891,5.891,0,0,0,3.83.3" transform="translate(69.037 98.551)" fill="#fff"/>
    <path d="M34.659,69.385a34.466,34.466,0,0,1-16.183-4.019l5.549-12.253L16.192,64.041A34.708,34.708,0,0,1,0,36.014l13.39-1.32L0,33.372A34.7,34.7,0,0,1,16.191,5.346l7.834,10.928L18.475,4.019a34.553,34.553,0,0,1,32.369,0l-5.55,12.254L53.128,5.346a34.707,34.707,0,0,1,16.19,28.027L55.93,34.694l13.388,1.32A34.7,34.7,0,0,1,53.127,64.04L45.294,53.113l5.549,12.252a34.46,34.46,0,0,1-16.184,4.02ZM37.847,47.65c-.737.631-1.354,1.2-1.884,1.726l-.108.108-.148,15.8a.386.386,0,0,0,.12.278.647.647,0,0,0,.461.177h1.143a.647.647,0,0,0,.461-.177.386.386,0,0,0,.12-.278Zm-6.376,0-.165,17.636a.386.386,0,0,0,.12.278.647.647,0,0,0,.461.177H33.03a.647.647,0,0,0,.461-.177.386.386,0,0,0,.12-.278l-.148-15.8-.108-.108C32.831,48.851,32.215,48.286,31.471,47.65Zm-8.411-8.023c-2.662,1.2-11.373,5.14-11.71,5.427-.7.4-4.155,2.517-3.535,4.672a2.826,2.826,0,0,0,.838,1.451,2.186,2.186,0,0,0,1.417.616c.1.008.2.013.3.013a9.58,9.58,0,0,0,4.1-1.368c.566-.273,7.226-5.054,11.073-7.836A17.565,17.565,0,0,1,23.061,39.627Zm23.191.009h0A17.2,17.2,0,0,1,44,42.378c4.207,2.94,11.393,7.926,12.25,8.268a6.239,6.239,0,0,0,2.9.793c.124,0,.245-.006.361-.016a3.114,3.114,0,0,0,.608-.119,2.187,2.187,0,0,0,1.211-.986l.035-.063a2.186,2.186,0,0,0,.258-1.6,5.54,5.54,0,0,0-2.544-2.982c-.667-.52-7.34-3.569-12.821-6.036ZM29.175,27.758a7.793,7.793,0,0,0-1.74.2A5.77,5.77,0,0,0,23.1,33.722c0,4.734,3.631,7.681,7.475,10.8a52.29,52.29,0,0,1,4.08,3.551,52.29,52.29,0,0,1,4.08-3.551c3.844-3.12,7.475-6.067,7.475-10.8a5.77,5.77,0,0,0-4.331-5.762,7.8,7.8,0,0,0-1.741-.2,5.951,5.951,0,0,0-5.483,3.32A5.951,5.951,0,0,0,29.175,27.758ZM55.991,17.582A15.64,15.64,0,0,0,48.4,19.842a14.862,14.862,0,0,0-6.171,6.312l.03,0,.039.007A7.554,7.554,0,0,1,48.03,33.1a16.356,16.356,0,0,0,6.756-2.218c5.216-3.02,8.027-7.952,6.266-10.994a5.152,5.152,0,0,0-4.229-2.27C56.554,17.593,56.274,17.582,55.991,17.582ZM6.954,22.721a.63.63,0,0,0-.064,0,.391.391,0,0,0-.338.212.474.474,0,0,0,.083.483c.187.276,7.884,4.848,11.184,6.8l2.555,1.451a8.067,8.067,0,0,0,1.039.494A7.525,7.525,0,0,1,26.5,26.311c-.123-.133-.239-.257-.346-.367a7.768,7.768,0,0,0-1.76-1.354l-2.557-1.453C18.47,21.3,10.6,17.038,10.269,17.019l-.052,0c-.025,0-.049,0-.073,0a.4.4,0,0,0-.362.226.456.456,0,0,0,.1.472c.225.3,10.944,6.651,11.051,6.713l.012.007.013,0a.275.275,0,0,1,.032.017l.019.011a1.082,1.082,0,0,1,.391.357.267.267,0,0,1,.048.246.221.221,0,0,1-.178.082l-.057,0a1.023,1.023,0,0,1-.454-.124l-.057-.029-.082-.045c-1.846-1-11.073-6.017-11.429-6.04l-.049,0a.66.66,0,0,0-.076,0,.4.4,0,0,0-.36.223.459.459,0,0,0,.1.472c.048.064.193.258,11.012,6.7l.1.057.068.039c.324.2.443.468.385.57a.223.223,0,0,1-.178.081l-.054,0a1.026,1.026,0,0,1-.454-.123l-.066-.038-.089-.049C8.45,20.866,8.2,20.835,8.116,20.825a.794.794,0,0,0-.08,0c-.023,0-.046,0-.067,0a.387.387,0,0,0-.337.21.478.478,0,0,0,.085.483c.22.32,10.647,6.484,11.091,6.746l.086.053c.325.2.445.47.388.572a.233.233,0,0,1-.18.083l-.051,0a1.094,1.094,0,0,1-.512-.153l-.011-.006a.307.307,0,0,1-.039-.025l-.011-.008-.012-.006-.057-.031c-1.839-1-11.032-5.985-11.371-6.019A.707.707,0,0,0,6.954,22.721ZM36.86,3.647a.531.531,0,0,0-.581.446l-.214,22.885a7.645,7.645,0,0,1,1.582-.691L37.44,4.093A.531.531,0,0,0,36.86,3.647Zm-4.4,0a.531.531,0,0,0-.58.446l-.207,22.194a7.614,7.614,0,0,1,1.581.691L33.039,4.093A.531.531,0,0,0,32.458,3.647Z" transform="translate(24.675 24.752)" fill="#fff"/>
    <path d="M8.21.377A5.769,5.769,0,0,0,.75,3.658L0,5.674,10.982,9.758l.757-2.034A5.781,5.781,0,0,0,8.21.377" transform="translate(97.304 71.696)" fill="#fff"/>
    <path d="M59.334,118.668a59.334,59.334,0,1,1,59.333-59.333A59.4,59.4,0,0,1,59.334,118.668ZM54.8,107.175v0l2.784,6.917.213.01,5.947-11.619c.753-1.446,1.125-2.11,1.556-2.88l.027-.049-1.868-.088a26.6,26.6,0,0,1-1.278,2.733l-4.308,8.862-2.161-5.655,1.682-3.241a29.541,29.541,0,0,1,1.625-2.9L57.2,99.179c-.263.643-.574,1.316-1.23,2.667l-.9,1.853-.722-1.865A27.773,27.773,0,0,1,53.311,99l-1.976-.091a19.534,19.534,0,0,1,1.371,3.021l1.447,3.621-2.565,5.307-3.748-9.581c-.364-.907-.731-1.846-.945-2.575l-2.122-.1a26.5,26.5,0,0,1,1.372,3L51.132,113.8l.255.01,3.414-6.629ZM74.85,96.919a7.536,7.536,0,1,0,2.424,14.655A7.534,7.534,0,0,0,74.85,96.919ZM34.206,91.144c-.328.57-1.22,1.991-2.024,3.2l-3.866,5.81c-.554.83-1.537,2.227-2.181,3.119l3.064,2.039c1.357.9,2.49,1.684,2.957,2.043l.872-1.31c-.486-.277-1.589-.983-3.028-1.937l-1.558-1.037L31.553,98.4l1.4.932c1.3.865,2.238,1.518,2.724,1.89l.873-1.309c-.563-.326-1.557-.96-2.8-1.786l-1.4-.93,2.567-3.859,1.415.94c1.518,1.011,2.509,1.705,2.946,2.063l.885-1.328c-.554-.317-1.776-1.08-3.039-1.921l-2.923-1.944Zm52.854-.862a5.6,5.6,0,0,0-3.437,1.393L81.257,93.58c.458.467,1.565,1.809,2.448,2.908L88.137,102c.657.817,1.821,2.281,2.237,2.913l1.472-1.184c-.565-.577-1.845-2.155-2.37-2.807L88,99.081l.895-.718.022-.018a4.06,4.06,0,0,0,.5-.454A61.514,61.514,0,0,0,96.477,100l1.837-1.478a31.678,31.678,0,0,1-5.118-1.1c-1-.269-1.94-.523-2.8-.708a4.164,4.164,0,0,0-3.339-6.431Zm-67.333-3.8h0l5.026,6.162L21.625,95.2c-.847.688-1.926,1.541-2.427,1.9l1.182,1.453c.413-.391,1.417-1.267,2.317-2L28.66,91.68c.9-.735,2.234-1.768,3-2.342L30.481,87.89c-.615.58-1.846,1.588-2.746,2.323l-.162.133-1.714,1.394L20.83,85.585l1.715-1.4c1.215-.993,2.557-2.031,3-2.342L24.366,80.4c-.438.413-1.816,1.561-2.911,2.453L15.508,87.7c-.81.663-1.915,1.54-2.427,1.9l1.183,1.446c.416-.391,1.421-1.266,2.318-2l3.145-2.567ZM59.334,22.8A36.535,36.535,0,1,0,95.868,59.334,36.576,36.576,0,0,0,59.334,22.8Zm31.6,61.758-1.113,1.507c.538.344,1.916,1.309,3.11,2.194l5.592,4.132c.784.581,2.135,1.634,3.008,2.331l2.591-3.5c.855-1.161,1.666-2.185,2.091-2.686l-1.3-.959c-.326.509-1.044,1.52-1.97,2.772L101.425,92.4l-7.469-5.525C92.738,85.971,91.395,84.924,90.935,84.558Zm12.682-14.705a7.351,7.351,0,0,0-6.855,4.774l-1.431,3.847c.652.169,2.307.747,3.605,1.229l6.516,2.425c1.449.539,2.966,1.152,3.529,1.427l1.434-3.848a7.323,7.323,0,0,0-4.284-9.4A7.18,7.18,0,0,0,103.617,69.852ZM20.489,74.894h0l.523,1.391c.529,1.4,1.035,2.868,1.219,3.475l1.471-.554c-.264-.591-.822-2-1.355-3.425L20.661,71.3c-.461-1.22-1.018-2.752-1.223-3.423l-1.472.554c.274.6.858,2.032,1.362,3.373l.516,1.373c-.671.3-1.646.689-2.544,1.027l-6.17,2.323c-1.266.477-2.928,1.082-3.585,1.281l.667,1.773c.621-.305,2.292-.957,3.534-1.423l6.169-2.326c.862-.324,1.842-.691,2.574-.943Zm86.883-17.827a2.267,2.267,0,1,0,2.267,2.267A2.269,2.269,0,0,0,107.373,57.067Zm-96.077,0a2.267,2.267,0,1,0,2.267,2.267A2.27,2.27,0,0,0,11.3,57.067Zm91.288-16.231h0l.668,1.7c.507,1.295.794,2.1.96,2.685l1.5-.59c-.24-.509-.615-1.336-1.119-2.621l-.669-1.7,4.712-1.846.666,1.7c.428,1.088.982,2.536,1.188,3.256l1.483-.583c-.287-.613-.813-1.839-1.343-3.194l-1.328-3.385c-.6.282-2.172.941-3.511,1.468l-6.474,2.538c-1.363.535-2.949,1.11-3.576,1.312l.685,1.739c.712-.305,2.257-.953,3.52-1.446l2.632-1.033ZM9.655,39.376h0c.689.249,1.691.644,2.552,1.008l6.07,2.561c1.3.551,2.88,1.241,3.482,1.541l.737-1.742c-.78-.244-2.908-1.136-3.542-1.4l-6.07-2.561c-.853-.36-1.821-.771-2.516-1.086l.577-1.372c.576-1.365,1.22-2.777,1.51-3.354L11,32.354c-.232.665-.856,2.193-1.371,3.412L7.772,40.174c-.6,1.436-1.2,2.773-1.472,3.325l1.448.613c.23-.656.795-2.1,1.337-3.388l.568-1.348Zm7.889-16.108-.318.372L22.762,35a35.637,35.637,0,0,1,1.453,3.266L25.49,36.78c-.319-.493-.683-1.189-1.245-2.3l-1.208-2.409,3.612-4.208,2.611.842c1.119.354,1.9.621,2.444.839l1.442-1.677c-.963-.192-2.2-.51-3.49-.9l-12.11-3.7Zm77.4-3.154a7.562,7.562,0,1,0,5.617,2.535A7.537,7.537,0,0,0,94.943,20.114ZM34.015,24.344l1.239,2.084c.353-.143.7-.252,1.028-.358a9.223,9.223,0,0,0,2.092-.884,4.092,4.092,0,0,0,1.659-5.81c-1.162-1.952-3.123-2.047-4.854-2.131-1.495-.073-2.906-.141-3.627-1.352a2.233,2.233,0,0,1,.894-3.278,3.665,3.665,0,0,1,1.823-.575,1.9,1.9,0,0,1,1.175.376l-1.176-1.973a9.675,9.675,0,0,1-.912.338,7.5,7.5,0,0,0-1.6.685c-2.2,1.309-2.829,3.473-1.614,5.514,1.155,1.937,2.989,2.032,4.762,2.123,1.491.077,2.9.149,3.644,1.4a2.372,2.372,0,0,1-.849,3.475,4.666,4.666,0,0,1-2.348.664A2.829,2.829,0,0,1,34.015,24.344Zm35.821-6.908-.8,2.284c.337.179.642.373.937.561a9.1,9.1,0,0,0,2.013,1.033,5.186,5.186,0,0,0,1.716.307,3.915,3.915,0,0,0,3.8-2.765c.751-2.143-.435-3.707-1.481-5.087-.9-1.192-1.757-2.318-1.293-3.647a2.181,2.181,0,0,1,2.105-1.6,2.975,2.975,0,0,1,.977.176c1.273.446,2.031,1.236,2.078,2.167L80.653,8.7a9.51,9.51,0,0,1-.847-.483,7.444,7.444,0,0,0-1.547-.781,5.235,5.235,0,0,0-1.723-.311A3.623,3.623,0,0,0,73,9.741c-.744,2.13.361,3.6,1.429,5.013.9,1.191,1.747,2.316,1.265,3.692A2.384,2.384,0,0,1,73.443,20.2a2.9,2.9,0,0,1-.957-.172A4.051,4.051,0,0,1,69.836,17.436ZM45.8,7.55h0c.209.69.48,1.7.707,2.648l1.549,6.4c.331,1.366.717,3.043.834,3.711l1.837-.447c-.243-.7-.717-2.6-.978-3.674L48.2,9.788l-.07-.293c-.191-.795-.408-1.7-.552-2.376l1.445-.348c1.424-.346,2.944-.669,3.592-.782l-.369-1.53c-.572.179-1.969.543-3.559.928L44.046,6.513c-1.257.3-2.849.671-3.546.793l.369,1.524c.672-.205,2.169-.61,3.509-.932L45.8,7.55ZM59.557,4.3c0,.6-.061,2.267-.158,3.781l-.448,6.953c-.063.952-.213,2.626-.329,3.789l3.666.238c1.533.1,2.971.216,3.579.3l.1-1.569h-.023c-.59,0-1.955-.064-3.563-.168l-1.868-.12.364-5.6,1.673.107c1.452.093,2.656.194,3.3.277l.1-1.57c-.676,0-1.914-.056-3.311-.149l-1.677-.11.3-4.62,1.7.11c1.008.065,2.814.193,3.578.316l.1-1.59c-.637,0-2.074-.051-3.586-.146Z" transform="translate(0 0.111)" fill="#fff"/>
    <path d="M1.581,6.729H0c.027-.283.049-1.055.049-1.758V1.886C.049,1.2.038.292.01,0H1.464C2.78,0,3.37.8,3.37,1.592a1.418,1.418,0,0,1-.835,1.326A1.829,1.829,0,0,1,3.88,4.735,2.068,2.068,0,0,1,1.581,6.729ZM.844,3.32V6.081h.679A1.4,1.4,0,0,0,3.075,4.715,1.359,1.359,0,0,0,1.631,3.32Zm0-2.7V2.731H1.6a.992.992,0,0,0,.973-1.05A1.088,1.088,0,0,0,1.394.618Z" transform="translate(9.213 126.393)" fill="#fff"/>
    <path d="M2.446,6.73c.019-.3.03-1.012.03-1.689V3.6L.913,1.268C.569.757.3.383,0,0H1.022a8.743,8.743,0,0,0,.549.924L2.908,2.9,4.175.992A8.265,8.265,0,0,0,4.784,0h.972c-.314.393-.619.835-.963,1.347L3.271,3.6V5.04c0,.677.02,1.384.039,1.689H2.446" transform="translate(13.675 126.393)" fill="#fff"/>
    <path d="M3.89.029c.678,0,1.4-.01,1.7-.029V.726C5.286.707,4.568.687,3.89.687H3.2c-.01.363-.01.865-.01,1.268V5c0,.667.01,1.453.039,1.758H2.358c.019-.3.029-1.091.029-1.758V1.954c0-.4-.01-.9-.029-1.268H1.679C1.012.687.3.707,0,.726V0C.3.019,1.012.029,1.679.029H3.89" transform="translate(22.786 126.364)" fill="#fff"/>
    <path d="M3.478,6.966A3.468,3.468,0,0,1,0,3.478,3.478,3.478,0,1,1,5.946,5.944,3.449,3.449,0,0,1,3.478,6.966Zm0-6.278A2.731,2.731,0,0,0,.815,3.478a2.737,2.737,0,0,0,2.662,2.8,2.737,2.737,0,0,0,2.662-2.8A2.731,2.731,0,0,0,3.478.688Z" transform="translate(29.14 126.275)" fill="#fff"/>
    <path d="M0,6.858C.069,6.543.177,5.8.275,5.08L.982,0h.207L3.734,5.61,6.307,0h.227L7.1,5.286a15.213,15.213,0,0,0,.235,1.572H6.406c0-.315-.031-.678-.089-1.336l-.334-3.6-2.2,5.021h-.2L1.415,1.936.982,5.443C.914,6.023.864,6.485.855,6.858H0" transform="translate(37.323 126.265)" fill="#fff"/>
    <path d="M3.478,6.966A3.468,3.468,0,0,1,0,3.478,3.478,3.478,0,1,1,5.947,5.944,3.451,3.451,0,0,1,3.478,6.966Zm0-6.278A2.731,2.731,0,0,0,.815,3.478a2.737,2.737,0,0,0,2.662,2.8,2.737,2.737,0,0,0,2.662-2.8A2.731,2.731,0,0,0,3.478.688Z" transform="translate(45.978 126.275)" fill="#fff"/>
    <path d="M.874,6.73H0c.024-.258.04-.893.04-1.7V1.758C.04,1.1.029.3,0,0H1.4C2.829,0,3.713.753,3.713,1.966A1.821,1.821,0,0,1,2.387,3.783c.256.315.522.68.8,1.066A14.656,14.656,0,0,0,4.713,6.728l-1.088,0A28.142,28.142,0,0,1,1.689,3.92a1.934,1.934,0,0,1-.324.019H.834V5.03c0,.8.015,1.437.04,1.7ZM.834.639V3.35h.639A1.336,1.336,0,0,0,2.9,1.985,1.361,1.361,0,0,0,1.374.639Z" transform="translate(54.632 126.393)" fill="#fff"/>
    <path d="M.874,6.73H0c.024-.258.04-.893.04-1.7V1.758C.04,1.1.029.3,0,0H1.4C2.829,0,3.713.753,3.713,1.966A1.821,1.821,0,0,1,2.387,3.783c.255.314.52.677.8,1.062A14.7,14.7,0,0,0,4.713,6.728l-1.088,0A28.229,28.229,0,0,1,1.689,3.92a1.934,1.934,0,0,1-.324.019H.834V5.03c0,.8.015,1.437.04,1.7ZM.834.639V3.35h.639A1.336,1.336,0,0,0,2.9,1.985,1.361,1.361,0,0,0,1.374.639Z" transform="translate(60.648 126.393)" fill="#fff"/>
    <path d="M3.478,6.966A3.468,3.468,0,0,1,0,3.478,3.478,3.478,0,1,1,5.946,5.944,3.449,3.449,0,0,1,3.478,6.966Zm0-6.278A2.731,2.731,0,0,0,.815,3.478a2.737,2.737,0,0,0,2.662,2.8,2.737,2.737,0,0,0,2.662-2.8A2.731,2.731,0,0,0,3.478.688Z" transform="translate(66.07 126.275)" fill="#fff"/>
    <path d="M9.51,0c-.187.374-.344.687-.668,1.385l-2.5,5.492h-.1L4.814,3.743,3.379,6.877H3.262L.7,1.356A12.319,12.319,0,0,0,0,0H.982c.108.314.284.718.492,1.169L3.409,5.511l1.071-2.5L3.733,1.366A8.932,8.932,0,0,0,3.035,0h.914a13.1,13.1,0,0,0,.54,1.287l.374.844.373-.874C5.512.619,5.639.3,5.747,0h.846A13.7,13.7,0,0,0,5.9,1.376L5.2,2.908l1.12,2.564,1.8-4.185A12.135,12.135,0,0,0,8.645,0H9.51" transform="translate(73.608 126.393)" fill="#fff"/>
    <path d="M.834,6.051H2.013c.668,0,1.278-.009,1.573-.029v.747c-.295-.021-.9-.039-1.573-.039H0c.019-.54.039-1.316.039-1.758V1.758C.039,1.081.019.295,0,0H.864C.854.295.834,1.081.834,1.758V6.051" transform="translate(84.435 126.393)" fill="#fff"/>
    <path d="M.9,6.859H0c.265-.5.51-1.012.707-1.494L3.025,0h.227L5.6,5.364c.243.548.512,1.092.736,1.493H5.314c-.1-.3-.273-.709-.442-1.111l-.49-1.168H1.818L1.336,5.729c-.2.489-.351.856-.431,1.129Zm2.19-5.414h0L2.083,3.92H4.107L3.094,1.445Z" transform="translate(89.082 126.265)" fill="#fff"/>
    <path d="M0,6.877c.019-.275.039-.9.039-1.424V1.9C.039,1.307.019.531,0,0H.187C.481.363.658.56.992.933L4.627,5.256V1.905c0-.559-.02-1.345-.03-1.758h.825c-.019.432-.03,1.218-.03,1.758V5.57c0,.413,0,.855.03,1.425H5.246C5,6.68,4.833,6.484,4.519,6.12l-3.7-4.4L.794,5.462c0,.511.021,1.14.04,1.415H0" transform="translate(96.714 126.246)" fill="#fff"/>
    <path d="M1.9,6.729H0C.028,6.444.05,5.689.05,4.972V1.758C.05,1.135.031.307,0,0H1.9a3.365,3.365,0,1,1,0,6.729ZM.845.658V6.071h1A2.666,2.666,0,0,0,4.46,3.36,2.666,2.666,0,0,0,1.837.658Z" transform="translate(104.18 126.393)" fill="#fff"/>
  </g>
</svg>
